<svg xmlns="http://www.w3.org/2000/svg" version="1.1" xmlns:xlink="http://www.w3.org/1999/xlink" xmlns:svgjs="http://svgjs.com/svgjs" width="1600" height="1600" preserveAspectRatio="none" viewBox="0 0 1600 1600"><g mask="url(&quot;#SvgjsMask2199&quot;)" fill="none"><rect width="1600" height="1600" x="0" y="0" fill="#0e2a47"></rect><path d="M1167 983L546 362" stroke-width="8" stroke="url(#SvgjsLinearGradient2200)" stroke-linecap="round" class="TopLeft"></path><path d="M357 948L1049 1640" stroke-width="6" stroke="url(#SvgjsLinearGradient2201)" stroke-linecap="round" class="BottomRight"></path><path d="M569 1539L-245 725" stroke-width="10" stroke="url(#SvgjsLinearGradient2202)" stroke-linecap="round" class="BottomRight"></path><path d="M649 286L1674 1311" stroke-width="8" stroke="url(#SvgjsLinearGradient2203)" stroke-linecap="round" class="TopLeft"></path><path d="M438 1469L-70 961" stroke-width="8" stroke="url(#SvgjsLinearGradient2203)" stroke-linecap="round" class="TopLeft"></path><path d="M408 1394L1081 2067" stroke-width="10" stroke="url(#SvgjsLinearGradient2201)" stroke-linecap="round" class="BottomRight"></path><path d="M1274 1143L2303 2172" stroke-width="8" stroke="url(#SvgjsLinearGradient2203)" stroke-linecap="round" class="TopLeft"></path><path d="M650 3L218 -429" stroke-width="6" stroke="url(#SvgjsLinearGradient2203)" stroke-linecap="round" class="TopLeft"></path><path d="M1057 1083L1758 1784" stroke-width="8" stroke="url(#SvgjsLinearGradient2201)" stroke-linecap="round" class="BottomRight"></path><path d="M1076 1475L-82 317" stroke-width="6" stroke="url(#SvgjsLinearGradient2201)" stroke-linecap="round" class="BottomRight"></path><path d="M671 1313L1638 2280" stroke-width="8" stroke="url(#SvgjsLinearGradient2202)" stroke-linecap="round" class="BottomRight"></path><path d="M901 1198L234 531" stroke-width="6" stroke="url(#SvgjsLinearGradient2202)" stroke-linecap="round" class="BottomRight"></path><path d="M965 567L1611 1213" stroke-width="10" stroke="url(#SvgjsLinearGradient2200)" stroke-linecap="round" class="TopLeft"></path><path d="M977 276L1985 1284" stroke-width="10" stroke="url(#SvgjsLinearGradient2200)" stroke-linecap="round" class="TopLeft"></path><path d="M229 981L-550 202" stroke-width="6" stroke="url(#SvgjsLinearGradient2200)" stroke-linecap="round" class="TopLeft"></path><path d="M1106 857L2242 1993" stroke-width="6" stroke="url(#SvgjsLinearGradient2201)" stroke-linecap="round" class="BottomRight"></path><path d="M987 953L1990 1956" stroke-width="10" stroke="url(#SvgjsLinearGradient2203)" stroke-linecap="round" class="TopLeft"></path><path d="M750 640L1220 1110" stroke-width="8" stroke="url(#SvgjsLinearGradient2202)" stroke-linecap="round" class="BottomRight"></path><path d="M1221 1094L1965 1838" stroke-width="10" stroke="url(#SvgjsLinearGradient2203)" stroke-linecap="round" class="TopLeft"></path><path d="M1098 17L2140 1059" stroke-width="6" stroke="url(#SvgjsLinearGradient2201)" stroke-linecap="round" class="BottomRight"></path><path d="M838 233L28 -577" stroke-width="10" stroke="url(#SvgjsLinearGradient2200)" stroke-linecap="round" class="TopLeft"></path><path d="M1582 1421L893 732" stroke-width="8" stroke="url(#SvgjsLinearGradient2202)" stroke-linecap="round" class="BottomRight"></path><path d="M291 741L-588 -138" stroke-width="6" stroke="url(#SvgjsLinearGradient2200)" stroke-linecap="round" class="TopLeft"></path><path d="M669 113L1729 1173" stroke-width="8" stroke="url(#SvgjsLinearGradient2203)" stroke-linecap="round" class="TopLeft"></path><path d="M1498 341L2217 1060" stroke-width="6" stroke="url(#SvgjsLinearGradient2202)" stroke-linecap="round" class="BottomRight"></path><path d="M144 425L1317 1598" stroke-width="8" stroke="url(#SvgjsLinearGradient2202)" stroke-linecap="round" class="BottomRight"></path><path d="M400 1562L802 1964" stroke-width="6" stroke="url(#SvgjsLinearGradient2203)" stroke-linecap="round" class="TopLeft"></path><path d="M980 1042L84 146" stroke-width="8" stroke="url(#SvgjsLinearGradient2203)" stroke-linecap="round" class="TopLeft"></path><path d="M28 1035L1202 2209" stroke-width="6" stroke="url(#SvgjsLinearGradient2203)" stroke-linecap="round" class="TopLeft"></path><path d="M309 1377L-868 200" stroke-width="6" stroke="url(#SvgjsLinearGradient2200)" stroke-linecap="round" class="TopLeft"></path><path d="M445 90L1169 814" stroke-width="6" stroke="url(#SvgjsLinearGradient2200)" stroke-linecap="round" class="TopLeft"></path><path d="M507 1414L1312 2219" stroke-width="6" stroke="url(#SvgjsLinearGradient2202)" stroke-linecap="round" class="BottomRight"></path><path d="M277 1070L-750 43" stroke-width="6" stroke="url(#SvgjsLinearGradient2203)" stroke-linecap="round" class="TopLeft"></path><path d="M201 99L-541 -643" stroke-width="10" stroke="url(#SvgjsLinearGradient2200)" stroke-linecap="round" class="TopLeft"></path><path d="M710 1507L1342 2139" stroke-width="6" stroke="url(#SvgjsLinearGradient2203)" stroke-linecap="round" class="TopLeft"></path><path d="M62 1108L584 1630" stroke-width="10" stroke="url(#SvgjsLinearGradient2202)" stroke-linecap="round" class="BottomRight"></path><path d="M7 1497L-654 836" stroke-width="6" stroke="url(#SvgjsLinearGradient2203)" stroke-linecap="round" class="TopLeft"></path><path d="M66 415L547 896" stroke-width="8" stroke="url(#SvgjsLinearGradient2201)" stroke-linecap="round" class="BottomRight"></path><path d="M601 891L144 434" stroke-width="6" stroke="url(#SvgjsLinearGradient2203)" stroke-linecap="round" class="TopLeft"></path><path d="M428 678L-60 190" stroke-width="6" stroke="url(#SvgjsLinearGradient2200)" stroke-linecap="round" class="TopLeft"></path><path d="M906 1413L-172 335" stroke-width="10" stroke="url(#SvgjsLinearGradient2201)" stroke-linecap="round" class="BottomRight"></path><path d="M390 1434L850 1894" stroke-width="10" stroke="url(#SvgjsLinearGradient2200)" stroke-linecap="round" class="TopLeft"></path><path d="M1215 1163L2115 2063" stroke-width="8" stroke="url(#SvgjsLinearGradient2202)" stroke-linecap="round" class="BottomRight"></path><path d="M284 1569L-584 701" stroke-width="6" stroke="url(#SvgjsLinearGradient2200)" stroke-linecap="round" class="TopLeft"></path><path d="M1466 714L2304 1552" stroke-width="6" stroke="url(#SvgjsLinearGradient2201)" stroke-linecap="round" class="BottomRight"></path><path d="M807 1278L1742 2213" stroke-width="10" stroke="url(#SvgjsLinearGradient2202)" stroke-linecap="round" class="BottomRight"></path><path d="M1024 672L560 208" stroke-width="8" stroke="url(#SvgjsLinearGradient2201)" stroke-linecap="round" class="BottomRight"></path><path d="M847 394L190 -263" stroke-width="6" stroke="url(#SvgjsLinearGradient2200)" stroke-linecap="round" class="TopLeft"></path><path d="M725 1545L1740 2560" stroke-width="6" stroke="url(#SvgjsLinearGradient2202)" stroke-linecap="round" class="BottomRight"></path><path d="M329 205L-670 -794" stroke-width="8" stroke="url(#SvgjsLinearGradient2202)" stroke-linecap="round" class="BottomRight"></path><path d="M504 905L1697 2098" stroke-width="8" stroke="url(#SvgjsLinearGradient2202)" stroke-linecap="round" class="BottomRight"></path><path d="M1303 1014L815 526" stroke-width="10" stroke="url(#SvgjsLinearGradient2200)" stroke-linecap="round" class="TopLeft"></path><path d="M1473 380L2367 1274" stroke-width="8" stroke="url(#SvgjsLinearGradient2202)" stroke-linecap="round" class="BottomRight"></path><path d="M112 744L-649 -17" stroke-width="8" stroke="url(#SvgjsLinearGradient2202)" stroke-linecap="round" class="BottomRight"></path><path d="M1086 748L2122 1784" stroke-width="6" stroke="url(#SvgjsLinearGradient2201)" stroke-linecap="round" class="BottomRight"></path><path d="M295 1556L-616 645" stroke-width="6" stroke="url(#SvgjsLinearGradient2200)" stroke-linecap="round" class="TopLeft"></path><path d="M133 249L-871 -755" stroke-width="8" stroke="url(#SvgjsLinearGradient2201)" stroke-linecap="round" class="BottomRight"></path></g><defs><mask id="SvgjsMask2199"><rect width="1600" height="1600" fill="#ffffff"></rect></mask><linearGradient x1="100%" y1="100%" x2="0%" y2="0%" id="SvgjsLinearGradient2200"><stop stop-color="rgba(28, 83, 142, 0)" offset="0"></stop><stop stop-color="#1c538e" offset="1"></stop></linearGradient><linearGradient x1="0%" y1="0%" x2="100%" y2="100%" id="SvgjsLinearGradient2201"><stop stop-color="rgba(0, 159, 183, 0)" offset="0"></stop><stop stop-color="rgba(0, 159, 183, 1)" offset="1"></stop></linearGradient><linearGradient x1="0%" y1="0%" x2="100%" y2="100%" id="SvgjsLinearGradient2202"><stop stop-color="rgba(28, 83, 142, 0)" offset="0"></stop><stop stop-color="#1c538e" offset="1"></stop></linearGradient><linearGradient x1="100%" y1="100%" x2="0%" y2="0%" id="SvgjsLinearGradient2203"><stop stop-color="rgba(0, 159, 183, 0)" offset="0"></stop><stop stop-color="rgba(0, 159, 183, 1)" offset="1"></stop></linearGradient></defs></svg>